<svg width="240" height="28" viewBox="0 0 240 28" fill="none" xmlns="http://www.w3.org/2000/svg">
<path d="M4.19629 5.59649H11.7983C12.7079 5.57732 13.6093 5.77151 14.4303 6.16349C15.1344 6.50412 15.7268 7.0383 16.1383 7.70349C16.5378 8.33092 16.7491 9.05968 16.7473 9.80349C16.7447 10.4881 16.5664 11.1606 16.2293 11.7565C15.8997 12.3496 15.4313 12.8539 14.8643 13.2265C15.6339 13.5635 16.2779 14.1341 16.7053 14.8575C17.1126 15.5612 17.3229 16.3615 17.3143 17.1745C17.3309 17.9491 17.1243 18.7121 16.7193 19.3725C16.28 20.0322 15.6672 20.5578 14.9483 20.8915C14.1066 21.2884 13.1836 21.4826 12.2533 21.4585H4.19629V5.59649ZM12.0223 18.4765C12.5363 18.5025 13.0397 18.3238 13.4223 17.9795C13.5971 17.8275 13.7365 17.639 13.8309 17.4274C13.9252 17.2158 13.9721 16.9861 13.9683 16.7545C13.9739 16.4266 13.8865 16.1038 13.7163 15.8235C13.5611 15.5233 13.3165 15.2787 13.0163 15.1235C12.7043 14.9495 12.3514 14.8625 11.9943 14.8715H7.37429V18.4555L12.0223 18.4765ZM11.6863 12.1275C11.9264 12.1348 12.1657 12.0947 12.3903 12.0094C12.6149 11.9241 12.8205 11.7953 12.9953 11.6305C13.1605 11.4764 13.2923 11.29 13.3826 11.0829C13.4729 10.8758 13.5198 10.6524 13.5203 10.4265C13.5263 10.1872 13.4828 9.94927 13.3924 9.72762C13.3021 9.50597 13.1669 9.30539 12.9953 9.13849C12.8298 8.95792 12.627 8.81554 12.401 8.72125C12.1749 8.62696 11.931 8.58302 11.6863 8.59249H7.37429V12.0925L11.6863 12.1275ZM23.9013 20.9055L18.6863 9.45349H21.7383L25.4973 17.7065L28.8573 9.45349H31.8743L24.5383 26.9185H21.4303L23.9013 20.9055ZM41.0023 21.6055C39.8858 21.7649 38.7496 21.7199 37.6493 21.4725C36.8807 21.333 36.1959 20.9016 35.7383 20.2685C35.3096 19.5179 35.1033 18.6609 35.1433 17.7975V12.2885H32.9733V9.45349H35.1713V7.16449L38.0973 6.27549V9.45349H41.0023V12.2885H38.0973V17.7975C38.0826 17.96 38.1059 18.1236 38.1654 18.2755C38.225 18.4274 38.3191 18.5633 38.4403 18.6725C38.7256 18.8539 39.0544 18.9554 39.3923 18.9665C39.9284 19.002 40.4662 19.002 41.0023 18.9665V21.6055ZM48.5343 21.7875C47.4405 21.8016 46.3633 21.5195 45.4169 20.9711C44.4704 20.4227 43.69 19.6284 43.1583 18.6725C42.6235 17.6694 42.3514 16.5472 42.3673 15.4105C42.3526 14.298 42.6328 13.2015 43.1793 12.2325C43.7116 11.2943 44.4881 10.5178 45.4263 9.98549C46.3811 9.42688 47.4701 9.13891 48.5763 9.15249C49.8291 9.10233 51.0688 9.42381 52.1393 10.0765C53.0818 10.7041 53.7848 11.6315 54.1343 12.7085C54.5433 13.9821 54.6605 15.3314 54.4773 16.6565L45.3353 16.6985C45.4747 17.179 45.7322 17.617 46.0843 17.9725C46.4352 18.2953 46.8436 18.5494 47.2883 18.7215C47.6859 18.8762 48.1077 18.9592 48.5343 18.9665C48.9388 18.9648 49.3422 18.9226 49.7383 18.8405C50.0956 18.7585 50.438 18.6215 50.7533 18.4345C51.0662 18.2608 51.3497 18.0387 51.5933 17.7765L51.7053 17.6365L54.0433 19.1835C53.5322 20.0554 52.7612 20.7456 51.8383 21.1575C50.7933 21.5968 49.6676 21.8114 48.5343 21.7875ZM51.6843 14.1715C51.5749 13.7192 51.3479 13.3038 51.0263 12.9675C50.7092 12.636 50.3217 12.38 49.8923 12.2185C49.4735 12.0529 49.0266 11.9697 48.5763 11.9735C48.1177 11.9758 47.6638 12.0661 47.2393 12.2395C46.7971 12.413 46.3963 12.6778 46.0633 13.0165C45.7384 13.3278 45.5162 13.7307 45.4263 14.1715H51.6843ZM56.5843 5.59649H62.3383C63.8366 5.56576 65.3188 5.90984 66.6503 6.59749C67.8743 7.22037 68.8837 8.19561 69.5483 9.39749C70.2507 10.6662 70.6035 12.0987 70.5703 13.5485C70.6065 15.0142 70.2538 16.4633 69.5483 17.7485C68.875 18.9437 67.8679 19.9167 66.6503 20.5485C65.3098 21.2035 63.8295 21.5207 62.3383 21.4725H56.5983L56.5843 5.59649ZM62.3383 18.5045C63.0184 18.5467 63.6997 18.4438 64.337 18.2024C64.9742 17.961 65.5528 17.5867 66.0343 17.1045C66.9237 16.1206 67.3869 14.8242 67.3223 13.4995C67.3898 12.1717 66.935 10.8703 66.0553 9.87349C65.5643 9.40253 64.9794 9.0406 64.3389 8.8114C63.6983 8.5822 63.0166 8.4909 62.3383 8.54349H59.7763V18.5045H62.3383ZM78.2073 21.7875C77.127 21.7983 76.0652 21.5074 75.1413 20.9475C74.2338 20.3713 73.493 19.5677 72.9923 18.6165C72.4551 17.6115 72.1806 16.487 72.1943 15.3475C72.1839 14.2529 72.459 13.1745 72.9923 12.2185C73.4957 11.2915 74.2376 10.5157 75.1413 9.97149C76.0657 9.41367 77.1276 9.12516 78.2073 9.13849C79.3819 9.08664 80.5325 9.48184 81.4273 10.2445C82.2419 10.9397 82.8659 11.8311 83.2403 12.8345C83.5785 13.6314 83.7705 14.4826 83.8073 15.3475C83.7761 16.2583 83.5841 17.1565 83.2403 18.0005C82.8637 19.0207 82.2409 19.932 81.4273 20.6535C80.5335 21.4351 79.3724 21.8414 78.1863 21.7875H78.2073ZM78.7743 18.9525C79.4008 18.9654 80.017 18.7925 80.5453 18.4555C81.0637 18.1361 81.4849 17.681 81.7633 17.1395C82.0534 16.587 82.2025 15.9715 82.1973 15.3475C82.2002 14.7749 82.0504 14.2119 81.7633 13.7165C81.4744 13.1985 81.0512 12.7681 80.5383 12.4705C80.01 12.1335 79.3938 11.9605 78.7673 11.9735C78.1349 11.9661 77.5135 12.1385 76.9753 12.4705C76.4431 12.7891 76.0001 13.2369 75.6873 13.7725C75.3954 14.2589 75.2406 14.8152 75.2393 15.3825C75.2372 16.0011 75.3913 16.6103 75.6873 17.1535C75.9804 17.7014 76.4126 18.1624 76.9403 18.4905C77.4887 18.813 78.1174 18.9732 78.7533 18.9525H78.7743ZM82.1273 17.0065L83.0583 15.2845L82.1273 13.8845V9.45349H85.1933V21.4725H82.1273V17.0065ZM88.1403 9.45349H91.1083V10.8535C91.4784 10.2951 91.9973 9.85142 92.6063 9.57249C93.2449 9.29733 93.934 9.15903 94.6293 9.16649C95.4564 9.15057 96.2722 9.36117 96.9883 9.77549C97.6633 10.1782 98.2059 10.7695 98.5493 11.4765C98.9308 12.2037 99.1256 13.0143 99.1163 13.8355V21.4725H96.0573V14.8505C96.0724 14.3534 95.9793 13.859 95.7843 13.4015C95.6236 13.0133 95.3345 12.6921 94.9653 12.4915C94.5873 12.2729 94.1558 12.1638 93.7193 12.1765C93.2681 12.1717 92.8229 12.28 92.4243 12.4915C92.0372 12.6952 91.722 13.0128 91.5213 13.4015C91.2804 13.8531 91.1621 14.3599 91.1783 14.8715V21.4725H88.1193L88.1403 9.45349ZM106.998 21.8155C105.909 21.8359 104.836 21.5526 103.899 20.9975C102.962 20.4424 102.198 19.6373 101.692 18.6725C101.175 17.6636 100.911 16.5441 100.922 15.4105C100.909 14.3034 101.173 13.2106 101.692 12.2325C102.212 11.2893 102.979 10.5047 103.909 9.96233C104.84 9.41997 105.9 9.14009 106.977 9.15249C108.032 9.12941 109.077 9.37001 110.015 9.85249C110.894 10.3096 111.623 11.0093 112.115 11.8685L109.826 13.2685C109.538 12.8445 109.138 12.5079 108.671 12.2955C108.136 12.0579 107.555 11.9431 106.97 11.9595C106.476 11.9688 105.993 12.1089 105.57 12.3655C105.093 12.6605 104.702 13.0757 104.436 13.5695C104.123 14.1214 103.966 14.7481 103.981 15.3825C103.968 16.0456 104.125 16.7011 104.436 17.2865C104.701 17.7921 105.092 18.2212 105.57 18.5325C105.988 18.8044 106.472 18.9547 106.97 18.9665C107.512 18.991 108.051 18.8811 108.539 18.6465C109.028 18.412 109.451 18.0602 109.77 17.6225L112.108 19.0225C111.611 19.8904 110.884 20.6048 110.008 21.0875C109.074 21.5785 108.032 21.8288 106.977 21.8155H106.998ZM119.689 21.8155C118.582 21.8266 117.494 21.5362 116.539 20.9755C115.598 20.4252 114.823 19.6291 114.299 18.6725C113.762 17.6699 113.488 16.5477 113.501 15.4105C113.489 14.2974 113.771 13.2009 114.32 12.2325C114.85 11.2946 115.624 10.5179 116.56 9.98549C117.523 9.41937 118.622 9.12652 119.738 9.13849C120.989 9.08634 122.227 9.40802 123.294 10.0625C124.239 10.6897 124.944 11.617 125.296 12.6945C125.703 13.9687 125.818 15.3179 125.632 16.6425L116.532 16.6845C116.651 17.164 116.886 17.6066 117.218 17.9725C117.569 18.2953 117.978 18.5494 118.422 18.7215C118.82 18.8755 119.242 18.9585 119.668 18.9665C120.072 18.9697 120.476 18.9322 120.872 18.8545C121.232 18.7725 121.577 18.6356 121.894 18.4485C122.205 18.2712 122.488 18.0495 122.734 17.7905L122.846 17.6505L125.184 19.1975C124.678 20.0627 123.918 20.7517 123.007 21.1715C121.95 21.6098 120.812 21.8198 119.668 21.7875L119.689 21.8155ZM122.846 14.1995C122.73 13.7498 122.504 13.336 122.188 12.9955C121.869 12.667 121.482 12.4115 121.054 12.2465C120.203 11.9057 119.253 11.9057 118.401 12.2465C117.958 12.4222 117.556 12.6866 117.218 13.0235C116.898 13.3384 116.677 13.7398 116.581 14.1785L122.846 14.1995ZM134.116 5.62449H140.829C142.378 5.52208 143.909 6.00974 145.113 6.98949C145.623 7.44955 146.024 8.0175 146.287 8.65201C146.55 9.28652 146.668 9.97164 146.632 10.6575C146.671 11.3294 146.557 12.0014 146.297 12.6224C146.037 13.2434 145.64 13.7971 145.134 14.2415C143.907 15.1691 142.385 15.6215 140.85 15.5155H137.238V21.4725H134.067L134.116 5.62449ZM140.15 14.4725L143.076 13.3595L146.408 21.4725H142.733L140.15 14.4725ZM140.738 12.5825C141.429 12.6289 142.118 12.4628 142.712 12.1065C142.934 11.9322 143.109 11.7066 143.224 11.4493C143.338 11.192 143.389 10.9106 143.37 10.6295C143.394 10.3326 143.346 10.0343 143.232 9.75932C143.117 9.48431 142.939 9.24035 142.712 9.04749C142.137 8.64302 141.44 8.4501 140.738 8.50149H137.238V12.5825H140.738ZM154.598 21.7875C153.504 21.8039 152.426 21.5228 151.479 20.9741C150.532 20.4255 149.752 19.63 149.222 18.6725C148.688 17.6645 148.418 16.5373 148.438 15.3965C148.424 14.284 148.704 13.1875 149.25 12.2185C149.783 11.2803 150.559 10.5038 151.497 9.97149C152.452 9.41288 153.541 9.12491 154.647 9.13849C155.909 9.08358 157.159 9.40521 158.238 10.0625C159.181 10.6901 159.884 11.6175 160.233 12.6945C160.639 13.9688 160.756 15.3173 160.576 16.6425L151.434 16.6845C151.561 17.1665 151.807 17.6093 152.148 17.9725C152.496 18.2889 152.9 18.5381 153.338 18.7075C153.736 18.8622 154.158 18.9452 154.584 18.9525C154.988 18.9554 155.392 18.9179 155.788 18.8405C156.146 18.7585 156.488 18.6215 156.803 18.4345C157.116 18.2608 157.4 18.0387 157.643 17.7765L157.755 17.6365L160.093 19.1835C159.59 20.051 158.829 20.7408 157.916 21.1575C156.867 21.5981 155.736 21.8128 154.598 21.7875ZM157.748 14.1715C157.639 13.7192 157.412 13.3038 157.09 12.9675C156.773 12.636 156.386 12.38 155.956 12.2185C155.537 12.0529 155.091 11.9697 154.64 11.9735C154.182 11.9758 153.728 12.0661 153.303 12.2395C152.861 12.413 152.46 12.6778 152.127 13.0165C151.802 13.3278 151.58 13.7307 151.49 14.1715H157.748ZM167.338 21.7875C166.377 21.7817 165.426 21.5891 164.538 21.2205C163.629 20.8486 162.825 20.257 162.2 19.4985L164.153 17.8465C164.526 18.2027 164.945 18.5064 165.399 18.7495C165.931 18.9766 166.501 19.1002 167.079 19.1135C167.647 19.1739 168.222 19.1045 168.759 18.9105C169.228 18.7285 169.459 18.4555 169.459 18.0915C169.476 17.9779 169.466 17.8621 169.431 17.7529C169.396 17.6436 169.336 17.5439 169.256 17.4615C169.039 17.2648 168.773 17.1295 168.486 17.0695C168.108 16.9645 167.513 16.8455 166.694 16.7125L166.085 16.5935C165.104 16.4721 164.175 16.0794 163.404 15.4595C163.092 15.1495 162.849 14.776 162.693 14.3642C162.537 13.9523 162.472 13.5118 162.501 13.0725C162.486 12.3194 162.717 11.5819 163.159 10.9725C163.605 10.3754 164.212 9.91865 164.909 9.65649C165.689 9.34677 166.521 9.19221 167.359 9.20149C168.281 9.19985 169.194 9.36834 170.054 9.69849C170.895 10.0218 171.624 10.5808 172.154 11.3085L170.222 12.9465C169.897 12.5514 169.464 12.2595 168.976 12.1065C168.152 11.7912 167.253 11.7279 166.393 11.9245C166.091 11.9702 165.804 12.0852 165.553 12.2605C165.445 12.3324 165.357 12.4304 165.297 12.5455C165.237 12.6605 165.207 12.7888 165.21 12.9185C165.197 13.1323 165.262 13.3436 165.392 13.5135C165.603 13.668 165.84 13.782 166.092 13.8495C166.456 13.9405 167.121 14.0875 168.087 14.2835H168.129C169.203 14.4701 170.216 14.9118 171.083 15.5715C171.462 15.847 171.769 16.2082 171.981 16.6256C172.193 17.0429 172.302 17.5045 172.301 17.9725C172.315 18.7063 172.067 19.4211 171.601 19.9885C171.102 20.5839 170.462 21.0457 169.739 21.3325C168.975 21.6363 168.16 21.7908 167.338 21.7875ZM180.071 21.7875C178.965 21.7986 177.876 21.5082 176.921 20.9475C175.988 20.4029 175.219 19.617 174.695 18.6725C174.158 17.6699 173.884 16.5477 173.897 15.4105C173.885 14.2974 174.167 13.2009 174.716 12.2325C175.246 11.2946 176.02 10.5179 176.956 9.98549C177.914 9.42697 179.005 9.13904 180.113 9.15249C181.364 9.10034 182.602 9.42202 183.669 10.0765C184.612 10.7057 185.317 11.6323 185.671 12.7085C186.078 13.9827 186.193 15.3319 186.007 16.6565L176.872 16.6985C177.009 17.1786 177.264 17.6166 177.614 17.9725C177.965 18.2953 178.374 18.5494 178.818 18.7215C179.216 18.8755 179.638 18.9585 180.064 18.9665C180.468 18.9697 180.872 18.9322 181.268 18.8545C181.628 18.7725 181.973 18.6356 182.29 18.4485C182.601 18.2712 182.884 18.0495 183.13 17.7905L183.242 17.6505L185.58 19.1975C185.081 20.0522 184.334 20.7356 183.438 21.1575C182.371 21.6055 181.221 21.8203 180.064 21.7875H180.071ZM183.228 14.1715C183.112 13.7218 182.886 13.308 182.57 12.9675C182.251 12.639 181.864 12.3835 181.436 12.2185C180.585 11.8777 179.635 11.8777 178.783 12.2185C178.34 12.3942 177.938 12.6586 177.6 12.9955C177.278 13.3086 177.056 13.7107 176.963 14.1505L183.228 14.1715ZM193.469 21.7875C192.391 21.7993 191.331 21.5082 190.41 20.9475C189.499 20.3735 188.756 19.5695 188.254 18.6165C187.717 17.6115 187.443 16.487 187.456 15.3475C187.446 14.2529 187.721 13.1745 188.254 12.2185C188.766 11.2859 189.521 10.5094 190.438 9.97149C191.36 9.41285 192.42 9.12423 193.497 9.13849C194.672 9.08664 195.822 9.48184 196.717 10.2445C197.532 10.9397 198.156 11.8311 198.53 12.8345C198.868 13.6314 199.061 14.4826 199.097 15.3475C199.066 16.2583 198.874 17.1565 198.53 18.0005C198.154 19.0207 197.531 19.932 196.717 20.6535C195.82 21.4385 194.653 21.845 193.462 21.7875H193.469ZM194.036 18.9525C194.663 18.9654 195.279 18.7925 195.807 18.4555C196.326 18.1343 196.749 17.6799 197.032 17.1395C197.317 16.5853 197.464 15.9705 197.459 15.3475C197.461 14.7759 197.314 14.2137 197.032 13.7165C196.74 13.2008 196.318 12.7711 195.807 12.4705C195.279 12.1335 194.663 11.9605 194.036 11.9735C193.404 11.9661 192.782 12.1385 192.244 12.4705C191.715 12.788 191.276 13.2364 190.97 13.7725C190.673 14.257 190.516 14.8142 190.515 15.3825C190.512 16.0021 190.669 16.6121 190.97 17.1535C191.26 17.7016 191.69 18.163 192.216 18.4905C192.765 18.812 193.394 18.9721 194.029 18.9525H194.036ZM197.389 17.0065L198.32 15.2845L197.389 13.8845V9.45349H200.455V21.4725H197.389V17.0065ZM203.402 9.45349H206.419V10.8535C206.816 10.2612 207.393 9.81209 208.064 9.57249C208.87 9.27068 209.724 9.12344 210.584 9.13849V12.0855C209.82 12.0717 209.059 12.195 208.337 12.4495C207.791 12.6545 207.308 12.9997 206.937 13.4505C206.61 13.8621 206.435 14.3737 206.44 14.8995V21.4725H203.423L203.402 9.45349ZM217.346 21.8155C216.26 21.8333 215.189 21.5488 214.255 20.9938C213.321 20.4388 212.559 19.6352 212.054 18.6725C211.533 17.6652 211.268 16.5447 211.284 15.4105C211.267 14.303 211.532 13.2094 212.054 12.2325C212.574 11.2893 213.341 10.5047 214.271 9.96233C215.202 9.41997 216.262 9.14009 217.339 9.15249C218.394 9.12941 219.439 9.37001 220.377 9.85249C221.254 10.3115 221.983 11.0108 222.477 11.8685L220.188 13.2685C219.9 12.8445 219.5 12.5079 219.033 12.2955C218.498 12.0579 217.917 11.9431 217.332 11.9595C216.838 11.9688 216.355 12.1089 215.932 12.3655C215.455 12.6605 215.064 13.0757 214.798 13.5695C214.485 14.1214 214.328 14.7481 214.343 15.3825C214.332 16.0409 214.489 16.6912 214.798 17.2725C215.063 17.7781 215.454 18.2072 215.932 18.5185C216.35 18.7904 216.834 18.9407 217.332 18.9525C217.887 18.9699 218.437 18.8598 218.942 18.6305C219.422 18.3864 219.841 18.037 220.167 17.6085L222.505 19.0085C221.997 19.8798 221.258 20.5942 220.37 21.0735C219.438 21.5694 218.396 21.8245 217.339 21.8155H217.346ZM224.661 5.28149H227.636V10.8815C228.004 10.3092 228.529 9.85486 229.148 9.57249C229.784 9.29608 230.471 9.1577 231.164 9.16649C231.992 9.14985 232.807 9.3605 233.523 9.77549C234.2 10.1781 234.745 10.7692 235.091 11.4765C235.473 12.2037 235.668 13.0143 235.658 13.8355V21.4725H232.592V14.8505C232.607 14.3534 232.514 13.859 232.319 13.4015C232.159 13.0153 231.873 12.6946 231.507 12.4915C231.129 12.2739 230.698 12.1649 230.261 12.1765C229.81 12.1711 229.365 12.2794 228.966 12.4915C228.579 12.6969 228.262 13.0139 228.056 13.4015C227.821 13.8549 227.705 14.3609 227.72 14.8715V21.4725H224.654L224.661 5.28149Z" fill="#020814"/>
</svg>
